<?xml version="1.0" standalone="no"?>
<!DOCTYPE svg PUBLIC "-//W3C//DTD SVG 20010904//EN"
 "http://www.w3.org/TR/2001/REC-SVG-20010904/DTD/svg10.dtd">
<svg version="1.0" xmlns="http://www.w3.org/2000/svg"
 width="900.000000pt" height="520.000000pt" viewBox="0 0 900.000000 520.000000"
 preserveAspectRatio="xMidYMid meet">

<g transform="translate(0.000000,520.000000) scale(0.100000,-0.100000)"
fill="#fff" stroke="none">
<path d="M2968 5181 c-131 -42 -222 -138 -257 -271 -9 -34 -11 -579 -9 -2295
l3 -2250 33 -67 c40 -82 119 -157 200 -190 l57 -23 1505 0 1505 0 57 23 c81
33 160 108 200 190 l33 67 3 1755 2 1755 -567 662 -568 663 -1070 -1 c-1005 0
-1073 -1 -1127 -18z m2002 -638 c0 -272 4 -495 10 -533 14 -87 52 -160 114
-218 62 -58 124 -89 202 -102 33 -6 229 -10 437 -10 l377 0 -2 -1643 -3 -1643
-24 -36 c-13 -19 -40 -46 -59 -59 l-36 -24 -1470 -3 -1470 -2 -51 25 c-30 14
-60 39 -75 61 l-25 38 -3 2220 c-1 1222 0 2236 3 2254 7 39 68 110 110 128 24
11 223 13 998 14 l967 0 0 -467z m660 -173 l423 -495 -353 -3 c-228 -1 -366 2
-392 8 -56 16 -121 83 -136 142 -8 32 -12 180 -12 470 l0 423 24 -25 c13 -14
214 -248 446 -520z"/>
<path d="M3270 4345 l0 -95 659 0 659 0 4 88 c2 48 3 90 1 95 -2 4 -301 7
-664 7 l-659 0 0 -95z"/>
<path d="M3270 3775 l0 -95 662 2 c652 3 661 3 664 23 2 11 1 53 -3 93 l-6 72
-658 0 -659 0 0 -95z"/>
<path d="M3270 3205 l0 -95 1230 0 1230 0 0 95 0 95 -1230 0 -1230 0 0 -95z"/>
<path d="M3337 2732 l-68 -3 3 -92 3 -92 1228 0 1227 0 0 92 0 93 -62 1 c-134
3 -2267 4 -2331 1z"/>
<path d="M3270 2075 l0 -95 1230 0 1230 0 0 95 0 95 -1230 0 -1230 0 0 -95z"/>
<path d="M3270 1505 l0 -95 1230 0 1230 0 0 95 0 95 -1230 0 -1230 0 0 -95z"/>
<path d="M3270 935 l0 -95 1230 0 1230 0 0 95 0 95 -1230 0 -1230 0 0 -95z"/>
</g>
</svg>
